<svg width="25" height="24" viewBox="0 0 25 24" fill="none" xmlns="http://www.w3.org/2000/svg">
<path d="M7.33331 17V17C5.12417 17 3.33331 15.2091 3.33331 13V10.5C3.33331 8.16537 3.33331 6.99805 3.80563 6.11441C4.17856 5.4167 4.75002 4.84525 5.44773 4.47231C6.33137 4 7.49868 4 9.83331 4H14.8333C17.1679 4 18.3353 4 19.2189 4.47231C19.9166 4.84525 20.4881 5.4167 20.861 6.11441C21.3333 6.99805 21.3333 8.16537 21.3333 10.5V10.5C21.3333 12.8346 21.3333 14.0019 20.861 14.8856C20.4881 15.5833 19.9166 16.1548 19.2189 16.5277C18.3353 17 17.1679 17 14.8333 17H12.3333" stroke="#536471" stroke-width="1.5" stroke-linecap="round" stroke-linejoin="round"/>
<path d="M7.33331 17L6.33331 20L12.3333 17" stroke="#536471" stroke-width="1.5" stroke-linecap="round" stroke-linejoin="round"/>
</svg>
