<svg width="251" height="201" viewBox="0 0 251 201" fill="none" xmlns="http://www.w3.org/2000/svg">
<path d="M35.9008 0C39.527 15.0432 51.098 28.7912 47.9008 45C54.6459 46.2064 63.8601 43.085 70.9969 47.1771C82.3383 51.7171 90.0921 62.1427 94.9007 73C98.2824 67.2541 100.77 56.9205 108.403 52.882C117.93 45.952 130.44 43.9019 141.901 46C141.72 29.6552 150.483 15.2852 154.901 0C146.883 3.61289 138.481 6.53006 130.704 10.5811C126.911 13.2187 123.118 15.8563 119.325 18.4938C111.69 17.1011 103.853 15.0075 95.9871 14.997C87.678 14.9859 79.691 17.1253 71.3252 18.625C64.9955 14.3895 59.1015 9.37199 51.777 6.92241C46.4849 4.61494 41.1929 2.30747 35.9008 0ZM47.9008 9C53.9008 13.6667 59.9007 18.3333 65.9007 23C60.5524 18.0385 56.7778 29.4916 54.418 24.7167C54.2079 26.3459 52.6036 31.5735 52.6036 31.5735L47.9008 9ZM142.901 10C141.234 18 137.901 34 137.901 34C137.901 34 136.826 25.8191 134.897 24.755C133.815 27.2547 133.214 28.459 130.86 24.998C129.687 23.0372 127.291 22.396 126.476 21.8625C131.951 17.9083 137.426 13.9542 142.901 10ZM46.9008 63C50.4824 78.2461 43.4544 93.6334 32.8362 104.361C19.7871 118.417 3.13116 131.944 0.346858 152.154C-1.84404 164.231 6.63927 175.492 17.4656 179.929C46.2313 192.318 82.6956 186.753 104.881 164.056C118.313 151.025 126.455 133.833 133.228 116.673C136.941 107.799 146.943 104.471 155.901 105C144.188 88.2313 117.801 87.9436 103.912 102.079C86.1343 118.948 79.014 145.319 57.4803 158.483C53.9678 160.809 44.8543 163.602 43.7689 162.458C60.7575 152.548 68.5395 133.806 78.1725 117.687C84.5619 108.627 94.0449 99.4522 92.0331 87.2803C89.1543 70.9731 71.088 61.9409 55.6816 62.7072C52.7531 62.7553 49.829 62.9402 46.9008 63ZM147.901 100C141.4 102.018 131.134 106.042 127.929 114.638C125.676 121.195 124.717 114.088 123.343 111.178C122.123 108.719 118.038 112.561 115.624 112.729C113.638 112.929 118.338 105.701 116.013 106.395L107.901 110C114.531 94.4656 134.564 91.7323 147.901 100Z" fill="white"/>
<path d="M144.872 183.283C140.72 183.283 137.088 182.372 133.975 180.548C130.861 178.697 128.435 176.061 126.696 172.639C124.985 169.217 124.129 165.15 124.129 160.437C124.129 155.753 124.999 151.714 126.738 148.32C128.477 144.898 130.889 142.261 133.975 140.41C137.088 138.559 140.72 137.633 144.872 137.633C149.023 137.633 152.641 138.559 155.727 140.41C158.812 142.261 161.224 144.898 162.963 148.32C164.702 151.714 165.572 155.753 165.572 160.437C165.572 165.15 164.702 169.217 162.963 172.639C161.252 176.061 158.84 178.697 155.727 180.548C152.641 182.372 149.023 183.283 144.872 183.283ZM144.872 176.215C147.312 176.215 149.444 175.612 151.267 174.406C153.118 173.172 154.535 171.376 155.516 169.02C156.526 166.636 157.031 163.789 157.031 160.479C157.031 157.113 156.526 154.266 155.516 151.938C154.535 149.582 153.118 147.787 151.267 146.553C149.444 145.319 147.312 144.702 144.872 144.702C142.403 144.702 140.258 145.319 138.434 146.553C136.611 147.787 135.195 149.582 134.185 151.938C133.175 154.266 132.67 157.113 132.67 160.479C132.67 163.789 133.175 166.636 134.185 169.02C135.195 171.376 136.611 173.172 138.434 174.406C140.258 175.612 142.403 176.215 144.872 176.215ZM176.553 183.283C175.319 183.283 174.309 182.877 173.524 182.063C172.738 181.25 172.346 180.17 172.346 178.823V125.432C172.346 124.086 172.738 123.006 173.524 122.192C174.309 121.379 175.319 120.972 176.553 120.972C177.787 120.972 178.797 121.379 179.582 122.192C180.368 123.006 180.761 124.086 180.761 125.432V178.823C180.761 180.17 180.368 181.25 179.582 182.063C178.797 182.877 177.787 183.283 176.553 183.283ZM193.719 198.051C192.513 198.051 191.503 197.644 190.69 196.831C189.905 196.046 189.512 194.966 189.512 193.591V141.925C189.512 140.607 189.891 139.569 190.648 138.811C191.405 138.026 192.387 137.633 193.593 137.633C194.743 137.633 195.697 138.026 196.454 138.811C197.211 139.569 197.59 140.607 197.59 141.925V145.964H197.758C198.656 144.281 199.792 142.822 201.166 141.588C202.569 140.354 204.168 139.4 205.963 138.727C207.786 138.026 209.763 137.675 211.895 137.675C215.626 137.675 218.879 138.615 221.656 140.494C224.461 142.346 226.635 144.982 228.178 148.404C229.748 151.798 230.534 155.823 230.534 160.479C230.534 165.107 229.762 169.132 228.22 172.554C226.677 175.948 224.517 178.585 221.74 180.464C218.963 182.316 215.738 183.241 212.063 183.241C209.96 183.241 207.996 182.919 206.173 182.274C204.378 181.6 202.793 180.675 201.419 179.497C200.072 178.291 198.964 176.888 198.095 175.289H197.927V193.591C197.927 194.966 197.534 196.046 196.749 196.831C195.963 197.644 194.953 198.051 193.719 198.051ZM209.876 176.047C212.344 176.047 214.476 175.416 216.271 174.153C218.094 172.891 219.496 171.096 220.478 168.768C221.46 166.412 221.951 163.649 221.951 160.479C221.951 157.282 221.46 154.519 220.478 152.191C219.496 149.863 218.094 148.068 216.271 146.805C214.476 145.515 212.344 144.87 209.876 144.87C207.463 144.87 205.36 145.515 203.564 146.805C201.769 148.096 200.367 149.919 199.357 152.275C198.375 154.603 197.885 157.338 197.885 160.479C197.885 163.593 198.375 166.328 199.357 168.684C200.367 171.012 201.769 172.821 203.564 174.111C205.36 175.401 207.463 176.047 209.876 176.047ZM241.515 131.448C240.141 131.448 238.963 130.972 237.981 130.018C237.027 129.036 236.55 127.872 236.55 126.526C236.55 125.151 237.027 123.987 237.981 123.034C238.963 122.08 240.141 121.603 241.515 121.603C242.917 121.603 244.096 122.08 245.049 123.034C246.031 123.987 246.522 125.151 246.522 126.526C246.522 127.872 246.031 129.036 245.049 130.018C244.096 130.972 242.917 131.448 241.515 131.448ZM241.515 183.283C240.281 183.283 239.271 182.877 238.486 182.063C237.7 181.222 237.308 180.142 237.308 178.823V142.093C237.308 140.775 237.7 139.709 238.486 138.896C239.271 138.054 240.281 137.633 241.515 137.633C242.749 137.633 243.759 138.054 244.544 138.896C245.33 139.709 245.722 140.775 245.722 142.093V178.823C245.722 180.142 245.33 181.222 244.544 182.063C243.759 182.877 242.749 183.283 241.515 183.283Z" fill="white"/>
</svg>
