<svg width="25" height="24" viewBox="0 0 25 24" fill="none" xmlns="http://www.w3.org/2000/svg">
<path d="M13.6666 13V18.585L15.4946 16.757L16.9096 18.172L12.6666 22.414L8.42364 18.172L9.83864 16.757L11.6666 18.585V13H13.6666ZM12.6666 2C14.3836 2.00008 16.0407 2.63111 17.3228 3.77312C18.605 4.91512 19.4227 6.48846 19.6206 8.194C20.8649 8.53332 21.9504 9.2991 22.6873 10.3575C23.4242 11.416 23.7658 12.6997 23.6523 13.9844C23.5387 15.2691 22.9773 16.473 22.0662 17.3858C21.1551 18.2986 19.9521 18.8622 18.6676 18.978V16.964C19.1278 16.8983 19.5703 16.7416 19.9692 16.503C20.3682 16.2644 20.7156 15.9487 20.9912 15.5744C21.2668 15.2001 21.4651 14.7746 21.5745 14.3228C21.6839 13.8711 21.7022 13.402 21.6284 12.9431C21.5545 12.4841 21.39 12.0445 21.1444 11.6498C20.8988 11.2552 20.577 10.9134 20.1978 10.6445C19.8187 10.3755 19.3898 10.1848 18.9362 10.0834C18.4825 9.98203 18.0132 9.97203 17.5556 10.054C17.7123 9.32489 17.7038 8.56997 17.5309 7.84455C17.3579 7.11913 17.0249 6.44158 16.5562 5.86153C16.0875 5.28147 15.495 4.81361 14.8221 4.49219C14.1492 4.17078 13.4129 4.00397 12.6671 4.00397C11.9214 4.00397 11.1851 4.17078 10.5122 4.49219C9.83924 4.81361 9.24674 5.28147 8.77805 5.86153C8.30935 6.44158 7.97635 7.11913 7.80342 7.84455C7.6305 8.56997 7.62203 9.32489 7.77864 10.054C6.8663 9.88267 5.92326 10.0808 5.15699 10.6048C4.39071 11.1287 3.86397 11.9357 3.69264 12.848C3.52131 13.7603 3.71943 14.7034 4.2434 15.4697C4.76738 16.2359 5.5743 16.7627 6.48664 16.934L6.66664 16.964V18.978C5.38209 18.8623 4.17905 18.2989 3.26778 17.3862C2.3565 16.4735 1.79497 15.2696 1.68132 13.9848C1.56766 12.7001 1.90912 11.4163 2.64601 10.3578C3.3829 9.29926 4.46835 8.53339 5.71264 8.194C5.91035 6.48838 6.72805 4.91491 8.01022 3.77287C9.2924 2.63082 10.9496 1.99986 12.6666 2Z" fill="#536471"/>
</svg>
