<svg width="20" height="18" viewBox="0 0 20 18" fill="none" xmlns="http://www.w3.org/2000/svg">
<path fill-rule="evenodd" clip-rule="evenodd" d="M9.5992 0.00650972C9.69954 -0.00216991 9.80046 -0.00216991 9.9008 0.00650972C10.2095 0.0332134 10.4903 0.163336 10.7517 0.28444L10.8163 0.314316L19.0636 4.11071C19.3296 4.23315 19.5 4.49919 19.5 4.792V14.4991L19.5001 14.5764C19.501 14.8878 19.5019 15.2225 19.381 15.5335C19.3417 15.6344 19.2932 15.7314 19.2361 15.8233C19.0599 16.1066 18.7916 16.3067 18.5419 16.4929L18.5419 16.4929L18.48 16.5391L16.95 17.6866C16.6186 17.9352 16.1485 17.868 15.9 17.5366C15.6515 17.2053 15.7186 16.7352 16.05 16.4866L17.58 15.3391C17.7449 15.2154 17.8376 15.1454 17.9036 15.0882C17.9526 15.0457 17.9635 15.0297 17.9633 15.0297C17.9633 15.0297 17.9629 15.0302 17.9623 15.0312C17.9705 15.018 17.9774 15.0042 17.983 14.9898C17.9803 14.9966 17.988 14.9848 17.9934 14.9086C17.9996 14.8214 18 14.7053 18 14.4991V5.98836L10.8612 9.44447L10.7939 9.4772C10.5223 9.60956 10.2305 9.75181 9.9076 9.781C9.80275 9.79048 9.69726 9.79048 9.59242 9.781C9.26954 9.75181 8.97771 9.60956 8.70615 9.4772L8.63885 9.44447L0.42319 5.46705C0.162015 5.34061 -0.00278869 5.07485 3.57349e-05 4.7847C0.00286022 4.49454 0.172806 4.23204 0.436393 4.11071L8.68373 0.314316L8.74835 0.28444C9.00968 0.163336 9.29047 0.0332134 9.5992 0.00650972ZM16.6581 12.8V8.19946L10.9327 10.9887L10.9327 10.9888C10.4175 11.2397 10.1599 11.3652 9.886 11.3901C9.79564 11.3984 9.70473 11.3984 9.61437 11.3901C9.34048 11.3652 9.08287 11.2397 8.56767 10.9887L2.84229 8.19946V12.8C2.84229 13.1397 2.84229 13.3096 2.90795 13.456C2.92954 13.5042 2.95614 13.5499 2.98731 13.5924C3.08217 13.7219 3.22984 13.8058 3.5252 13.9737L9.0831 17.1326C9.37193 17.2968 9.51634 17.3789 9.6728 17.3951C9.72425 17.4005 9.77612 17.4005 9.82758 17.3951C9.98404 17.3789 10.1284 17.2968 10.4173 17.1326L15.9752 13.9737C16.2705 13.8058 16.4182 13.7219 16.513 13.5924C16.5442 13.5499 16.5708 13.5042 16.5924 13.456C16.6581 13.3096 16.6581 13.1397 16.6581 12.8Z" fill="#8B53FC"/>
</svg>
