<svg width="24" height="24" viewBox="0 0 30 30" fill="none" xmlns="http://www.w3.org/2000/svg">
<path d="M3.91667 5.5L3.91667 20.25C3.91667 23.9997 3.91667 25.8746 4.87158 27.1889C5.17998 27.6134 5.55327 27.9867 5.97774 28.2951C7.29207 29.25 9.16693 29.25 12.9167 29.25L17.0833 29.25C20.8331 29.25 22.7079 29.25 24.0223 28.2951C24.4467 27.9867 24.82 27.6134 25.1284 27.1889C26.0833 25.8746 26.0833 23.9997 26.0833 20.25L26.0833 5.5M3.91667 5.5H0.75M3.91667 5.5L10.25 5.5M26.0833 5.5L29.25 5.5M26.0833 5.5H19.75M10.25 5.5V4.35C10.25 2.85011 10.25 2.10016 10.632 1.57443C10.7553 1.40464 10.9046 1.25533 11.0744 1.13197C11.6002 0.75 12.3501 0.75 13.85 0.75L16.15 0.75C17.6499 0.75 18.3998 0.75 18.9256 1.13197C19.0954 1.25533 19.2447 1.40464 19.368 1.57443C19.75 2.10016 19.75 2.85011 19.75 4.35V5.5M10.25 5.5L19.75 5.5M11.0417 11.0417V22.125M18.9583 11.0417L18.9583 22.125" stroke="#C70000" stroke-width="1.5" stroke-linecap="round" stroke-linejoin="round"/>
</svg>
